<svg width="800px" height="800px" viewBox="0 0 24 24" xmlns="http://www.w3.org/2000/svg" class="w-6 h-6 pointer-events-none mr-2 text-2xl"><path d="M12 4.5c3.828 0 6.74 2.287 8.62 6.592l.139.326L21 12l-.241.582C18.885 17.097 15.924 19.5 12 19.5c-3.828 0-6.74-2.287-8.62-6.592l-.139-.326L3 12l.241-.582C5.115 6.903 8.076 4.5 12 4.5zM12 6c-3.27 0-5.736 2-7.395 6 1.66 4 4.124 6 7.395 6 3.27 0 5.736-2 7.395-6-1.66-4-4.124-6-7.395-6zm0 1.75a4.25 4.25 0 110 8.5 4.25 4.25 0 010-8.5zm0 1.5a2.75 2.75 0 100 5.5 2.75 2.75 0 000-5.5z" fill="#a8b3cf" fill-rule="evenodd"></path></svg>