<svg width="108" height="15" viewBox="0 0 108 15" fill="none" xmlns="http://www.w3.org/2000/svg">
<path d="M11.4355 2.96445H7.44141V14.4H4.27734V2.96445H0.302734V0.396088H11.4355V2.96445ZM16.4746 14.4H13.3203V0.396088H16.4746V14.4ZM35.625 14.4H32.5098V6.02109C32.5098 5.11614 32.5488 4.11679 32.627 3.02304H32.5488C32.3861 3.88242 32.2396 4.50091 32.1094 4.87851L28.8281 14.4H26.25L22.9102 4.97617C22.819 4.72226 22.6725 4.07122 22.4707 3.02304H22.3828C22.4674 4.40325 22.5098 5.61419 22.5098 6.65585V14.4H19.668V0.396088H24.2871L27.1484 8.69687C27.3763 9.36093 27.5423 10.0282 27.6465 10.6988H27.7051C27.8809 9.92408 28.0664 9.25025 28.2617 8.67734L31.123 0.396088H35.625V14.4ZM47.207 14.4H38.8086V0.396088H46.8848V2.96445H41.9629V6.07968H46.543V8.63828H41.9629V11.8414H47.207V14.4ZM61.7871 14.4V4.45859C61.7871 4.2177 61.8229 3.53085 61.8945 2.39804H61.8555C61.6536 2.92538 61.4844 3.33229 61.3477 3.61874L56.3672 14.4H56.0547L51.0547 3.67734C50.8919 3.33229 50.7389 2.89283 50.5957 2.35898H50.5469C50.5924 2.98398 50.6152 3.60572 50.6152 4.22421V14.4H49.6484V0.396088H50.5469L55.7715 11.6754C55.804 11.7405 55.8398 11.8284 55.8789 11.9391C55.918 12.0497 55.9603 12.1604 56.0059 12.2711C56.071 12.4404 56.1393 12.6292 56.2109 12.8375H56.2695L56.377 12.525C56.3835 12.499 56.4941 12.1897 56.709 11.5973L61.8555 0.396088H62.7148V14.4H61.7871ZM75.4297 14.4L73.8281 10.0445H67.7539L66.1523 14.4H65.0879L70.3711 0.396088H71.2891L76.5137 14.4H75.4297ZM71.1328 2.68124C71.0612 2.48593 71.0026 2.29387 70.957 2.10507C70.9115 1.94231 70.8626 1.77955 70.8105 1.61679H70.7715C70.6608 2.04648 70.5534 2.39479 70.4492 2.66171L68.0957 9.15585H73.4961L71.1328 2.68124ZM80.498 1.28476V14.4H79.541V1.28476H75.498V0.396088H84.541V1.28476H80.498ZM94.873 13.941C93.7402 14.4098 92.5586 14.6441 91.3281 14.6441C89.4141 14.6441 87.8516 14.0029 86.6406 12.7203C85.4362 11.4312 84.834 9.75156 84.834 7.68124C84.834 5.40911 85.4883 3.58945 86.7969 2.22226C88.1055 0.848562 89.7689 0.161713 91.7871 0.161713C92.8613 0.161713 93.89 0.334239 94.873 0.679291V1.70468C93.89 1.26197 92.8548 1.04062 91.7676 1.04062C90.0098 1.04062 88.5807 1.63632 87.4805 2.82773C86.3802 4.01913 85.8301 5.60442 85.8301 7.58359C85.8301 9.49114 86.3542 10.9983 87.4023 12.1051C88.457 13.2053 89.7917 13.7555 91.4062 13.7555C92.6953 13.7555 93.8509 13.5048 94.873 13.0035V13.941ZM106.973 14.4V7.68124H98.9551V14.4H97.9883V0.396088H98.9551V6.80234H106.973V0.396088H107.93V14.4H106.973Z" fill="#2CDCE6"/>
</svg>
